<svg xmlns="http://www.w3.org/2000/svg" width="68.755" height="50.385" viewBox="0 0 68.755 50.385">
    <defs>
        <style>
            .cls-1{fill:#b1b1b1}
        </style>
    </defs>
    <g id="FFftuM.tif" transform="translate(231.318 -719.637)">
        <g id="Group_22" data-name="Group 22" transform="translate(-231.318 719.637)">
            <path id="Path_39" d="M-186.879 710.154q7.5-4.023 12.067.263c3.289 3.064 3.848 6.829 1.791 11.545a36.027 36.027 0 0 1 5.022 2.79 12.966 12.966 0 0 1 5.062 13.783c-1.229 5.6-4.906 9.066-10.457 10.465a13.683 13.683 0 0 1-3.295.307q-19.115.03-38.231 0a15.95 15.95 0 0 1-16.006-12.567 15.922 15.922 0 0 1 7.853-17.384 1.579 1.579 0 0 0 .964-1.669 18.088 18.088 0 0 1 14.794-18.417 18.267 18.267 0 0 1 19.939 9.874c.168.338.331.674.497 1.01zm-7.772 16.279c2.565 0 4.963-.007 7.362 0 .712 0 1.55.018 1.672-.8a2.285 2.285 0 0 0-.667-1.643c-3.848-3.918-7.744-7.789-11.63-11.67-1.094-1.092-1.555-1.089-2.659.013q-5.586 5.579-11.158 11.171c-.59.595-1.556 1.1-1.162 2.156.435 1.165 1.547.737 2.4.755 2.2.044 4.394.015 6.669.015v1.39c0 3.585-.005 7.17 0 10.755 0 1.2.373 1.582 1.552 1.593 1.831.016 3.661.005 5.492 0 1.951 0 2.122-.176 2.122-2.175.007-3.8.007-7.607.007-11.56z" class="cls-1" data-name="Path 39" transform="translate(231.318 -698.944)"/>
        </g>
    </g>
</svg>
