<svg xmlns="http://www.w3.org/2000/svg" width="13.5" height="12" viewBox="0 0 13.5 12">
    <defs>
        <style>
            .cls-1{fill:#707070}
        </style>
    </defs>
    <path id="Path_137" d="M-4.078-2.414a.159.159 0 0 0-.047.117V.375h-8.25v-8.25H-6.7a.159.159 0 0 0 .117-.047l.75-.75a.182.182 0 0 0 .047-.211A.166.166 0 0 0-5.953-9h-6.422a1.085 1.085 0 0 0-.8.328 1.085 1.085 0 0 0-.328.8V.375a1.085 1.085 0 0 0 .328.8 1.085 1.085 0 0 0 .8.328h8.25a1.085 1.085 0 0 0 .8-.328A1.085 1.085 0 0 0-3 .375v-3.4a.182.182 0 0 0-.117-.187.182.182 0 0 0-.211.047zM-.4-7.148a1.323 1.323 0 0 0 .4-.973 1.323 1.323 0 0 0-.4-.973L-1.406-10.1a1.323 1.323 0 0 0-.973-.4 1.323 1.323 0 0 0-.973.4l-6.164 6.163-.234 2.109a.942.942 0 0 0 .281.8.942.942 0 0 0 .8.281l2.109-.234zm-2.32.727l-4.358 4.359L-8.6-1.9l.164-1.523 4.359-4.359zM-1.2-8.3a.238.238 0 0 1 .07.176.238.238 0 0 1-.07.176l-.727.727-1.354-1.357.727-.727a.238.238 0 0 1 .176-.07.238.238 0 0 1 .178.075z" class="cls-1" data-name="Path 137" transform="translate(13.5 10.5)"/>
</svg>
