<svg xmlns="http://www.w3.org/2000/svg" width="26.25" height="26.25" viewBox="0 0 26.25 26.25">
    <defs>
        <style>
            .cls-1{fill:#fff}
        </style>
    </defs>
    <path id="Path_125" d="M13.125-17.988a6.557 6.557 0 0 1 3.369.908 6.758 6.758 0 0 1 2.461 2.461 6.557 6.557 0 0 1 .908 3.369 6.557 6.557 0 0 1-.908 3.369 6.758 6.758 0 0 1-2.461 2.461 6.557 6.557 0 0 1-3.369.908 6.557 6.557 0 0 1-3.369-.908 6.758 6.758 0 0 1-2.461-2.461 6.557 6.557 0 0 1-.908-3.369 6.557 6.557 0 0 1 .908-3.369 6.758 6.758 0 0 1 2.461-2.461 6.557 6.557 0 0 1 3.369-.908zm0 11.133a4.233 4.233 0 0 0 3.105-1.29 4.233 4.233 0 0 0 1.289-3.105 4.233 4.233 0 0 0-1.289-3.105 4.233 4.233 0 0 0-3.105-1.289 4.233 4.233 0 0 0-3.105 1.289 4.233 4.233 0 0 0-1.29 3.105 4.233 4.233 0 0 0 1.29 3.105 4.233 4.233 0 0 0 3.105 1.29zm8.613-11.426a1.826 1.826 0 0 1-.5 1.113 1.427 1.427 0 0 1-1.084.469 1.521 1.521 0 0 1-1.113-.469 1.521 1.521 0 0 1-.469-1.113 1.521 1.521 0 0 1 .469-1.113 1.521 1.521 0 0 1 1.113-.469 1.521 1.521 0 0 1 1.113.469 1.521 1.521 0 0 1 .471 1.113zm4.453 1.581q.059 1.641.059 5.449t-.088 5.479a11.05 11.05 0 0 1-.5 2.9 6.829 6.829 0 0 1-1.609 2.55A6.829 6.829 0 0 1 21.5 1.289a11.05 11.05 0 0 1-2.9.5q-1.67.088-5.479.088t-5.475-.09a9.568 9.568 0 0 1-2.9-.557A6.246 6.246 0 0 1 2.2-.322 6.829 6.829 0 0 1 .586-2.871a11.05 11.05 0 0 1-.5-2.9Q0-7.441 0-11.25t.088-5.479a11.05 11.05 0 0 1 .5-2.9A6.829 6.829 0 0 1 2.2-22.178a6.829 6.829 0 0 1 2.549-1.611 11.05 11.05 0 0 1 2.9-.5q1.67-.088 5.479-.088t5.479.088a11.05 11.05 0 0 1 2.9.5 6.829 6.829 0 0 1 2.549 1.611 6.829 6.829 0 0 1 1.611 2.549 11.92 11.92 0 0 1 .524 2.929zM23.379-3.516a12.337 12.337 0 0 0 .469-3.164q.059-1.289.059-3.633v-1.875q0-2.4-.059-3.633a11.757 11.757 0 0 0-.469-3.164 4.229 4.229 0 0 0-2.52-2.52 11.757 11.757 0 0 0-3.164-.469q-1.289-.059-3.633-.059h-1.875q-2.344 0-3.633.059a12.337 12.337 0 0 0-3.164.469 4.229 4.229 0 0 0-2.52 2.52 11.757 11.757 0 0 0-.47 3.165q-.059 1.289-.059 3.633v1.875q0 2.344.059 3.633a12.337 12.337 0 0 0 .469 3.164A4.442 4.442 0 0 0 5.391-1a12.337 12.337 0 0 0 3.164.469q1.289.059 3.633.059h1.875q2.4 0 3.633-.059A11.757 11.757 0 0 0 20.859-1a4.442 4.442 0 0 0 2.52-2.516z" class="cls-1" data-name="Path 125" transform="translate(0 24.375)"/>
</svg>
