<svg xmlns="http://www.w3.org/2000/svg" width="40" height="40" viewBox="0 0 40 40">
    <defs>
        <style>
            .cls-1{fill:#3bcf76}
        </style>
    </defs>
    <path id="up_svg" d="M23.125-5a1.808 1.808 0 0 0 1.328-.547A1.808 1.808 0 0 0 25-6.875V-20h6.875a1.41 1.41 0 0 0 1.406-.977 1.437 1.437 0 0 0-.312-1.68L21.094-34.531A1.5 1.5 0 0 0 20-35a1.5 1.5 0 0 0-1.094.469L7.031-22.656a1.437 1.437 0 0 0-.312 1.68A1.41 1.41 0 0 0 8.125-20H15v13.125a1.808 1.808 0 0 0 .547 1.328A1.808 1.808 0 0 0 16.875-5zM40-5.625a1.808 1.808 0 0 0-.547-1.328 1.808 1.808 0 0 0-1.328-.547H27.5v.625a4.21 4.21 0 0 1-1.289 3.086A4.21 4.21 0 0 1 23.125-2.5h-6.25a4.21 4.21 0 0 1-3.086-1.289A4.21 4.21 0 0 1 12.5-6.875V-7.5H1.875a1.808 1.808 0 0 0-1.328.547A1.808 1.808 0 0 0 0-5.625v8.75a1.808 1.808 0 0 0 .547 1.328A1.808 1.808 0 0 0 1.875 5h36.25a1.808 1.808 0 0 0 1.328-.547A1.808 1.808 0 0 0 40 3.125zM30.312 1.25a1.5 1.5 0 0 1-.469 1.094 1.51 1.51 0 0 1-2.187 0 1.51 1.51 0 0 1 0-2.187 1.51 1.51 0 0 1 2.187 0 1.5 1.5 0 0 1 .469 1.093zm5 0a1.5 1.5 0 0 1-.469 1.094 1.51 1.51 0 0 1-2.187 0 1.51 1.51 0 0 1 0-2.187 1.51 1.51 0 0 1 2.187 0 1.5 1.5 0 0 1 .469 1.093z" class="cls-1" data-name="Path 124" transform="translate(0 35)"/>
</svg>
