<svg xmlns="http://www.w3.org/2000/svg" width="17.997" height="16" viewBox="0 0 17.997 16">
    <defs>
        <style>
            .cls-1{fill:#3bcf76}
        </style>
    </defs>
    <path id="Path_124" d="M16.5-4.594a.73.73 0 0 1-.266.437.725.725 0 0 1-.453.157H6.625l.187 1h8.406a.682.682 0 0 1 .562.281.757.757 0 0 1 .156.625l-.187.781a1.693 1.693 0 0 1 .734.641 1.7 1.7 0 0 1 .267.922 1.684 1.684 0 0 1-.516 1.234 1.735 1.735 0 0 1-2.469 0 1.7 1.7 0 0 1-.515-1.25A1.628 1.628 0 0 1 13.781-1H7.219A1.628 1.628 0 0 1 7.75.234a1.7 1.7 0 0 1-.516 1.25 1.735 1.735 0 0 1-2.469 0A1.684 1.684 0 0 1 4.25.25a1.722 1.722 0 0 1 .234-.875 1.841 1.841 0 0 1 .641-.656L2.937-12H.75a.723.723 0 0 1-.531-.219A.723.723 0 0 1 0-12.75v-.5a.723.723 0 0 1 .219-.531A.723.723 0 0 1 .75-14h3.219a.684.684 0 0 1 .453.172.794.794 0 0 1 .266.422L4.969-12H17.25a.712.712 0 0 1 .594.281.677.677 0 0 1 .125.625z" class="cls-1" data-name="Path 124" transform="translate(0 14)"/>
</svg>
