<svg xmlns="http://www.w3.org/2000/svg" width="35" height="35" viewBox="0 0 35 35">
    <defs>
        <style>
            .cls-1{fill:#b1b1b1}
        </style>
    </defs>
    <path id="Path_126" d="M17.5-23.984a8.742 8.742 0 0 1 4.492 1.211 9.011 9.011 0 0 1 3.281 3.281A8.742 8.742 0 0 1 26.484-15a8.742 8.742 0 0 1-1.211 4.492 9.011 9.011 0 0 1-3.281 3.281A8.742 8.742 0 0 1 17.5-6.016a8.742 8.742 0 0 1-4.492-1.211 9.011 9.011 0 0 1-3.281-3.281A8.742 8.742 0 0 1 8.516-15a8.742 8.742 0 0 1 1.211-4.492 9.011 9.011 0 0 1 3.281-3.281 8.742 8.742 0 0 1 4.492-1.211zm0 14.844a5.644 5.644 0 0 0 4.141-1.719A5.644 5.644 0 0 0 23.359-15a5.644 5.644 0 0 0-1.719-4.141 5.644 5.644 0 0 0-4.14-1.718 5.644 5.644 0 0 0-4.141 1.719A5.644 5.644 0 0 0 11.641-15a5.644 5.644 0 0 0 1.719 4.141 5.644 5.644 0 0 0 4.14 1.718zm11.484-15.235a2.434 2.434 0 0 1-.664 1.484 1.9 1.9 0 0 1-1.445.625 2.028 2.028 0 0 1-1.484-.625 2.028 2.028 0 0 1-.625-1.484 2.028 2.028 0 0 1 .625-1.484 2.028 2.028 0 0 1 1.484-.625 2.028 2.028 0 0 1 1.484.625 2.028 2.028 0 0 1 .625 1.484zm5.937 2.109Q35-20.078 35-15t-.117 7.3a14.734 14.734 0 0 1-.664 3.867A9.106 9.106 0 0 1 32.07-.43a9.106 9.106 0 0 1-3.4 2.148 14.734 14.734 0 0 1-3.867.664q-2.227.117-7.3.117t-7.3-.117a12.757 12.757 0 0 1-3.867-.742A8.328 8.328 0 0 1 2.93-.43a9.106 9.106 0 0 1-2.148-3.4A14.734 14.734 0 0 1 .117-7.7Q0-9.922 0-15t.117-7.3a14.734 14.734 0 0 1 .664-3.867 9.106 9.106 0 0 1 2.148-3.4 9.106 9.106 0 0 1 3.4-2.148 14.734 14.734 0 0 1 3.867-.664q2.227-.117 7.3-.117t7.3.117a14.734 14.734 0 0 1 3.867.664 9.106 9.106 0 0 1 3.4 2.148 9.106 9.106 0 0 1 2.148 3.4 15.894 15.894 0 0 1 .711 3.901zM31.172-4.687a16.449 16.449 0 0 0 .628-4.219q.078-1.719.078-4.844v-2.5q0-3.2-.078-4.844a15.676 15.676 0 0 0-.625-4.219 5.638 5.638 0 0 0-3.359-3.359 15.676 15.676 0 0 0-4.219-.625q-1.719-.078-4.844-.078h-2.5q-3.125 0-4.844.078a16.449 16.449 0 0 0-4.219.625 5.638 5.638 0 0 0-3.359 3.359 15.676 15.676 0 0 0-.631 4.219q-.078 1.719-.078 4.844v2.5q0 3.125.078 4.844a16.449 16.449 0 0 0 .625 4.219 5.923 5.923 0 0 0 3.362 3.359 16.449 16.449 0 0 0 4.219.628q1.719.078 4.844.078h2.5q3.2 0 4.844-.078a15.676 15.676 0 0 0 4.219-.625 5.923 5.923 0 0 0 3.359-3.362z" class="cls-1" data-name="Path 126" transform="translate(0 32.5)"/>
</svg>
