<svg xmlns="http://www.w3.org/2000/svg" width="22.5" height="17.5" viewBox="0 0 22.5 17.5">
    <defs>
        <style>
            .cls-1{fill:#afafaf}
        </style>
    </defs>
    <path id="Path_132" d="M18.867-1.484a.422.422 0 0 0-.117-.316.422.422 0 0 0-.312-.117.422.422 0 0 0-.312.117.422.422 0 0 0-.117.312.493.493 0 0 0 .117.332.391.391 0 0 0 .312.137.391.391 0 0 0 .312-.137.493.493 0 0 0 .117-.328zm-12.148-.43a.422.422 0 0 0-.312.117.422.422 0 0 0-.117.312.493.493 0 0 0 .117.332.391.391 0 0 0 .312.137.391.391 0 0 0 .312-.137.493.493 0 0 0 .117-.332.422.422 0 0 0-.117-.315.422.422 0 0 0-.312-.114zm4.609-.039a.352.352 0 0 0-.391.352h.742q-.038-.352-.351-.352zm4.18.039a.422.422 0 0 0-.308.114.367.367 0 0 0-.1.312.676.676 0 0 0 .117.332.336.336 0 0 0 .293.137.452.452 0 0 0 .332-.137.452.452 0 0 0 .137-.332.391.391 0 0 0-.139-.312.493.493 0 0 0-.332-.114zM19.648-.9l-.039-.078h-.039l-.078.039-.039.078.078.078.039.039.078-.078zm-.078.039l.039.039h-.039l-.039-.039v.041h-.039v-.117h.117v.078zm2.93-13.475a1.808 1.808 0 0 0-.547-1.328 1.808 1.808 0 0 0-1.328-.547H1.875a1.808 1.808 0 0 0-1.328.547A1.808 1.808 0 0 0 0-14.336v13.75A1.808 1.808 0 0 0 .547.742a1.808 1.808 0 0 0 1.328.547h18.75a1.808 1.808 0 0 0 1.328-.547A1.808 1.808 0 0 0 22.5-.586zm-20 5.469a5.263 5.263 0 0 1 .723-2.715A5.508 5.508 0 0 1 5.2-13.555a5.188 5.188 0 0 1 2.7-.742 5.2 5.2 0 0 1 3.008.937 5.737 5.737 0 0 0-1.875 2.812A5.79 5.79 0 0 0 9-7.187a5.522 5.522 0 0 0 1.9 2.812 5.364 5.364 0 0 1-3.008.9A5.3 5.3 0 0 1 5.2-4.2a5.311 5.311 0 0 1-1.977-1.972A5.3 5.3 0 0 1 2.5-8.867zm8.75 4.219a5.083 5.083 0 0 1-1.816-2.618 5.375 5.375 0 0 1 0-3.2 5.293 5.293 0 0 1 1.816-2.656 5.293 5.293 0 0 1 1.816 2.656 5.375 5.375 0 0 1 0 3.2 5.083 5.083 0 0 1-1.816 2.618zM5.7-1.641v.9h-.309v-.352a2.358 2.358 0 0 0-.059-.645.3.3 0 0 0-.293-.2.246.246 0 0 0-.293.176 2.6 2.6 0 0 0-.059.664l.039.352h-.312v-.352a2.358 2.358 0 0 0-.059-.645.3.3 0 0 0-.293-.2.246.246 0 0 0-.293.176 2.6 2.6 0 0 0-.059.664v.352H3.4v-1.436h.312v.156a.542.542 0 0 1 .449-.2.492.492 0 0 1 .449.273.507.507 0 0 1 .469-.273.637.637 0 0 1 .469.156.581.581 0 0 1 .152.434zm1.758-.547v1.446h-.31v-.2A.526.526 0 0 1 6.68-.7a.654.654 0 0 1-.508-.215.782.782 0 0 1-.2-.547.782.782 0 0 1 .2-.547.632.632 0 0 1 .488-.215.662.662 0 0 1 .488.2v-.156zm1.565 1.016q0 .352-.469.43A.981.981 0 0 1 7.773-.9l.117-.234a.929.929 0 0 0 .527.156q.293 0 .293-.156t-.312-.2a.755.755 0 0 1-.391-.117.3.3 0 0 1-.2-.312q0-.391.43-.449a1.083 1.083 0 0 1 .742.137l-.117.234a1.079 1.079 0 0 0-.488-.117q-.254 0-.254.137t.293.2a3.919 3.919 0 0 1 .41.1.384.384 0 0 1 .2.349zm1.407.352a.75.75 0 0 1-.566.1q-.332-.059-.332-.527v-.664h-.313v-.273h.312v-.43h.313v.43h.508v.273h-.508v.664q0 .234.156.234a.693.693 0 0 0 .312-.078zm.508-.508a.345.345 0 0 0 .332.312.657.657 0 0 0 .527-.156l.156.234a.9.9 0 0 1-.859.176.659.659 0 0 1-.469-.723.755.755 0 0 1 .2-.527.654.654 0 0 1 .508-.215q.664 0 .664.9zm2.3-.859l-.078.312a.486.486 0 0 0-.332-.039q-.176.039-.176.352v.82h-.312v-1.445h.313v.156a.356.356 0 0 1 .254-.2.486.486 0 0 1 .335.044zm.43.7a.425.425 0 0 0 .254.449.539.539 0 0 0 .527-.1l.156.234a.687.687 0 0 1-.508.2.828.828 0 0 1-.547-.2.719.719 0 0 1-.234-.586.67.67 0 0 1 .469-.684.8.8 0 0 1 .82.1l-.156.273a.539.539 0 0 0-.527-.1.394.394 0 0 0-.25.417zm2.578-.7v1.445h-.312v-.2a.49.49 0 0 1-.43.234.739.739 0 0 1-.504-.21.732.732 0 0 1-.234-.566.7.7 0 0 1 .215-.547.73.73 0 0 1 .508-.2.542.542 0 0 1 .449.2v-.156zm1.328 0l-.078.312a.419.419 0 0 0-.332-.02q-.176.059-.176.332v.82h-.308v-1.444h.313v.156a.318.318 0 0 1 .273-.176.771.771 0 0 1 .312.02zm1.562-.586v2.031h-.312v-.2a.42.42 0 0 1-.41.234.761.761 0 0 1-.527-.215.732.732 0 0 1-.234-.566.673.673 0 0 1 .234-.547.778.778 0 0 1 .508-.2.52.52 0 0 1 .43.2v-.742zm.313-2.93h-.078v-.039h.2v.042h-.078v.2h-.039zm.234 4.844l-.078.117h-.117l-.039-.039a.035.035 0 0 1-.039-.039v-.117l.039-.039.117-.039.117.078zm.156-4.883v.234H19.8v-.2l-.078.156h-.039l-.074-.148v-.039h.039l.078.156.039-.156zM20-8.867a5.3 5.3 0 0 1-.723 2.7A5.311 5.311 0 0 1 17.3-4.2a5.3 5.3 0 0 1-2.7.723 5.364 5.364 0 0 1-3.008-.9 5.522 5.522 0 0 0 1.908-2.81 5.856 5.856 0 0 0-.02-3.379A5.733 5.733 0 0 0 11.6-13.4a5.364 5.364 0 0 1 3.008-.9 5.188 5.188 0 0 1 2.7.742 5.508 5.508 0 0 1 1.973 1.973A5.263 5.263 0 0 1 20-8.867z" class="cls-1" data-name="Path 132" transform="translate(0 16.211)"/>
</svg>
