<svg xmlns="http://www.w3.org/2000/svg" width="15.008" height="17.734" viewBox="0 0 15.008 17.734">
    <defs>
        <style>
            .cls-1{fill:#264ca3}
        </style>
    </defs>
    <path id="Path_130" d="M4.336-5.937q-.078.508-.586 3.672L3.516-.7a.125.125 0 0 1-.116.075H.469a.486.486 0 0 1-.352-.156A.423.423 0 0 1 0-1.172l2.3-14.492a.718.718 0 0 1 .254-.488.806.806 0 0 1 .527-.176l2.852-.039q2.617 0 3.32.078a5.573 5.573 0 0 1 1.8.391 3.153 3.153 0 0 1 2.031 2.187 5.732 5.732 0 0 1-.312 3.281Q11.562-6.953 7.3-6.875h-.9A4.805 4.805 0 0 0 5-6.8a1.11 1.11 0 0 0-.664.863zm9.609-5.625q1.406 1.055.937 3.633-.859 4.374-5.582 4.374h-.159a1.625 1.625 0 0 0-.625.078 1.1 1.1 0 0 0-.352.7L7.578.781a.7.7 0 0 1-.234.41.629.629 0 0 1-.43.176h-2.5a.371.371 0 0 1-.314-.156.423.423 0 0 1-.077-.352l1.055-6.64a.373.373 0 0 1 .43-.352h.469a23.031 23.031 0 0 0 2.617-.117 7.115 7.115 0 0 0 2.812-1.05 5.857 5.857 0 0 0 2.07-2.891 12.828 12.828 0 0 0 .352-1.328q0-.078.039-.078a.113.113 0 0 1 .078.035z" class="cls-1" data-name="Path 130" transform="translate(.008 16.367)"/>
</svg>
