<svg xmlns="http://www.w3.org/2000/svg" width="38.75" height="38.75" viewBox="0 0 38.75 38.75">
    <defs>
        <style>
            .cls-1{fill:#e90017}
        </style>
    </defs>
    <path id="Path_137" d="M38.75-15a18.781 18.781 0 0 0-2.617-9.687 19.578 19.578 0 0 0-7.07-7.07 18.781 18.781 0 0 0-9.687-2.617 18.781 18.781 0 0 0-9.687 2.617 19.578 19.578 0 0 0-7.07 7.07A18.781 18.781 0 0 0 0-15 18.943 18.943 0 0 0 3.4-3.984a18.733 18.733 0 0 0 8.945 7.031 17.177 17.177 0 0 1 .077-5.547l2.187-9.609A6.816 6.816 0 0 1 14.062-15a5.371 5.371 0 0 1 1.016-3.359 3.048 3.048 0 0 1 2.5-1.328 2.218 2.218 0 0 1 1.8.742A2.811 2.811 0 0 1 20-17.07a17 17 0 0 1-.859 4.023 19.96 19.96 0 0 0-.7 2.5 2.756 2.756 0 0 0 .547 2.461 2.862 2.862 0 0 0 2.344 1.055 5.173 5.173 0 0 0 4.336-2.5 10.886 10.886 0 0 0 1.758-6.406 7.6 7.6 0 0 0-2.27-5.663 8 8 0 0 0-5.856-2.228 8.761 8.761 0 0 0-4.687 1.25 8.139 8.139 0 0 0-3.013 3.086 8.367 8.367 0 0 0-1.055 4.1 7.97 7.97 0 0 0 .391 2.461 6.216 6.216 0 0 0 1.016 1.992.543.543 0 0 1 .156.547L11.562-8.2q-.078.469-.625.234a6.193 6.193 0 0 1-2.852-3.008 9.818 9.818 0 0 1-1.133-4.492 11.634 11.634 0 0 1 1.523-5.82 11.146 11.146 0 0 1 4.258-4.258 14.6 14.6 0 0 1 7.031-1.641 12.836 12.836 0 0 1 6.094 1.445 10.846 10.846 0 0 1 4.3 4.023 11.007 11.007 0 0 1 1.562 5.82 13.837 13.837 0 0 1-1.29 5.975 10.722 10.722 0 0 1-3.594 4.336 8.766 8.766 0 0 1-5.117 1.6 6.028 6.028 0 0 1-2.734-.625 3.638 3.638 0 0 1-1.719-1.562l-1.25 4.609a19.573 19.573 0 0 1-2.344 5.078 18.909 18.909 0 0 0 5.7.859 18.781 18.781 0 0 0 9.687-2.617 19.578 19.578 0 0 0 7.07-7.07A18.781 18.781 0 0 0 38.75-15z" class="cls-1" data-name="Path 137" transform="translate(0 34.375)"/>
</svg>
