<svg xmlns="http://www.w3.org/2000/svg" width="22.5" height="17.5" viewBox="0 0 22.5 17.5">
    <defs>
        <style>
            .cls-1{fill:#264ca3}
        </style>
    </defs>
    <path id="Path_131" d="M18.359-8.477l-.117-.508-.117.391-.078.2-.625 1.68h1.289q-.156-.864-.352-1.763zm4.141-5.9a1.808 1.808 0 0 0-.547-1.328 1.808 1.808 0 0 0-1.328-.547H1.875a1.808 1.808 0 0 0-1.328.552A1.808 1.808 0 0 0 0-14.375v13.75A1.808 1.808 0 0 0 .547.7a1.808 1.808 0 0 0 1.328.547h18.75A1.808 1.808 0 0 0 21.953.7 1.808 1.808 0 0 0 22.5-.625zM5.977-4.57H4.3L2.891-9.844a6.563 6.563 0 0 0-1.641-.664l.039-.117h2.5q.625.039.742.508l.7 3.633 1.523-4.141h1.68zm3.672 0H8.086l.977-6.055h1.562zm5.469-1.953a1.783 1.783 0 0 1-.762 1.5 3.221 3.221 0 0 1-1.973.566 4.556 4.556 0 0 1-1.758-.343l.234-1.367.2.117a2.733 2.733 0 0 0 .7.254 3.957 3.957 0 0 0 .723.059 1.476 1.476 0 0 0 .7-.156.476.476 0 0 0 .293-.43.5.5 0 0 0-.2-.371 2.527 2.527 0 0 0-.625-.371q-1.406-.7-1.387-1.621a1.833 1.833 0 0 1 .762-1.484 3.067 3.067 0 0 1 1.914-.566 3.657 3.657 0 0 1 1.406.273l-.228 1.283-.156-.039a2.26 2.26 0 0 0-1.172-.234 1.094 1.094 0 0 0-.645.156.5.5 0 0 0-.234.352.386.386 0 0 0 .2.352 5.194 5.194 0 0 0 .684.391q1.323.663 1.323 1.679zm5.507 1.953H19.18l-.2-.9h-2.027l-.312.9H15l2.344-5.547a.788.788 0 0 1 .82-.508h1.211z" class="cls-1" data-name="Path 131" transform="translate(0 16.25)"/>
</svg>
